<?xml version="1.0" encoding="UTF-8"?>
<svg xmlns="http://www.w3.org/2000/svg" viewBox="0 0 14 16" fill="currentColor">
  <g>
    <path class="cls-1" d="m7.28.08c-.17-.11-.39-.11-.55,0C4.84,1.36,2.68,2.18.43,2.5c-.25.04-.43.25-.43.5v4.5c0,3.89,2.31,6.73,6.82,8.47.12.04.24.04.36,0,4.51-1.74,6.82-4.58,6.82-8.47V3c0-.25-.18-.46-.43-.49-2.25-.32-4.41-1.15-6.29-2.42h0Zm-.28,3.67c.41,0,.75.34.75.75v5c0,.41-.34.75-.75.75s-.75-.34-.75-.75v-5c0-.41.34-.75.75-.75Zm.91,8c0,.49-.41.91-.91.91s-.91-.41-.91-.91h0c0-.49.41-.91.91-.91s.91.41.91.91Z"/>  </g>
</svg>
