<?xml version="1.0" encoding="UTF-8"?>
<svg xmlns="http://www.w3.org/2000/svg" viewBox="0 0 28 14" fill="currentColor">
  <g>
    <path d="m25.33,1.77l-12.03-.6h14.7V0H11.39v4.41s-.48-2.87-.6-3.69h-1.3v4.1s-.57-3.44-.6-3.88H0c.6.5,3.95,3.34,6.33,4.51,1.18.57,2.64.6,3.95.63.67.03,1.34.06,1.85.57.73.69.89,1.8.25,2.62-.6.82-2.32,1.01-2.32,1.01l-1.46,1.7v2.02h3.28l.1-1.99,2.83-1.99c-.29.25-.99.88-1.97,2.43-.22.35-.41.73-.54,1.1.7-.6,2.16-1.01,3.88-1.01s3.15.41,3.85,1.01c-.13-.38-.32-.76-.54-1.1-1.02-1.55-1.69-2.18-1.97-2.43l2.83,1.99.1,1.99h3.05v-2.02l-1.43-1.73s-2.13-.13-2.67-1.01c-1.65-2.46.6-6.31,5.95-7.47Z"/>
  </g>
</svg>
