<?xml version="1.0" encoding="UTF-8"?>
<svg xmlns="http://www.w3.org/2000/svg" viewBox="0 0 28 27" fill="currentColor">
  <g>
    <path d="m14,0C6.27,0,0,6.2,0,13.84c0,6.12,4.01,11.31,9.57,13.13.7.13.96-.3.96-.67,0-.33,0-1.2-.01-2.35-3.9.83-4.72-1.86-4.72-1.86-.64-1.6-1.56-2.02-1.56-2.02-1.27-.86.1-.84.1-.84,1.4.09,2.14,1.42,2.14,1.42,1.25,2.12,3.28,1.51,4.08,1.15.12-.89.49-1.51.88-1.85-3.11-.35-6.38-1.54-6.38-6.84,0-1.51.54-2.75,1.44-3.72-.15-.35-.63-1.76.12-3.66,0,0,1.17-.37,3.85,1.42,1.12-.31,2.31-.46,3.5-.47,1.19,0,2.38.16,3.5.47,2.66-1.79,3.83-1.42,3.83-1.42.75,1.91.28,3.32.14,3.66.89.97,1.43,2.2,1.43,3.72,0,5.32-3.27,6.49-6.38,6.83.49.41.94,1.27.94,2.56,0,1.85-.02,3.34-.02,3.79,0,.36.24.79.97.65,5.6-1.81,9.61-7,9.61-13.11C28,6.2,21.73,0,14,0h0Z"/>
  </g>
</svg>
