<?xml version="1.0" encoding="UTF-8"?>
<svg xmlns="http://www.w3.org/2000/svg" viewBox="0 0 26 28">
  <defs>
    <style>
      .cls-1 {
        fill: #4285f4;
      }

      .cls-1, .cls-2, .cls-3, .cls-4 {
        stroke-width: 0px;
      }

      .cls-2 {
        fill: #ea4335;
      }

      .cls-3 {
        fill: #34a853;
      }

      .cls-4 {
        fill: #fbbc04;
      }
    </style>
  </defs>
  <g>
    <path class="cls-2" d="m12.14,13.37L.11,25.68c.14.47.38.9.71,1.26.33.36.74.64,1.21.83s.96.26,1.46.23c.5-.03.98-.18,1.41-.42l13.54-7.53-6.29-6.67Z"/>
    <path class="cls-4" d="m24.31,11.28l-5.86-3.27-6.59,5.65,6.62,6.37,5.81-3.24c.51-.26.95-.66,1.25-1.14.3-.49.46-1.04.46-1.61s-.16-1.12-.46-1.61c-.3-.49-.73-.88-1.25-1.14h.02Z"/>
    <path class="cls-1" d="m.11,2.33C.03,2.59,0,2.86,0,3.13v21.74c0,.27.04.54.11.81l12.45-11.99L.11,2.33Z"/>
    <path class="cls-3" d="m12.23,14l6.22-6L4.93.45C4.42.16,3.85,0,3.26,0c-.71,0-1.41.22-1.97.64C.71,1.06.3,1.65.11,2.32l12.12,11.68Z"/>
  </g>
</svg>
