<?xml version="1.0" encoding="UTF-8"?>
<svg xmlns="http://www.w3.org/2000/svg" viewBox="0 0 28 28" fill="currentColor">
  <g>
    <g>
      <path d="m12.61.08C7.78.56,3.58,3.46,1.41,7.82.69,9.27.2,10.94.04,12.52l-.04.36h1.25c.69,0,1.25-.02,1.25-.05.07-1.02.52-2.61,1.06-3.75,1.93-4.04,5.94-6.57,10.39-6.57,1.88,0,3.48.37,5.12,1.18,1.86.92,3.35,2.23,4.49,3.93.51.75,1.2,2.13,1.12,2.21-.03.03-.53.18-1.1.33l-1.05.28-.27-.54c-.89-1.77-2.37-3.25-4.11-4.13-.63-.32-1.28-.56-1.38-.52-.04.01-.1.16-.12.33-.02.16-.09.59-.16.95-.06.36-.13.76-.15.88l-.04.23.53.25c1.82.85,3.14,2.42,3.69,4.4.16.57.18.7.18,1.71s-.02,1.14-.18,1.71c-.33,1.17-.92,2.21-1.72,3.02-.46.47-1.14.97-1.64,1.23-.17.08-.3.19-.3.23,0,.11.6,2.29.64,2.32.06.06,1.11-.5,1.73-.92.77-.52,1.85-1.59,2.37-2.36.72-1.08,1.17-2.12,1.45-3.37.12-.55.14-.83.14-1.84s.01-1.2.09-1.22c.76-.22,2.08-.54,2.1-.52.04.05.11,1.09.11,1.73,0,.86-.08,1.7-.22,2.31-.06.29-.11.53-.11.54,0,.01.53.2,1.16.43.87.32,1.16.4,1.2.34.1-.17.37-1.81.44-2.69.14-1.96-.2-4.22-.92-5.99C25.03,3.92,20.61.6,15.29.08c-1.07-.11-1.63-.11-2.68,0Z"/>
      <path d="m12.92,4.83c-.46.04-1.47.29-1.99.47-2.55.9-4.66,2.95-5.6,5.47-.74,1.95-.76,4.4-.06,6.31l.16.42-.57.33c-1.15.67-1.35.79-1.4.79-.06,0-.33-.69-.51-1.28-.2-.7-.41-1.71-.44-2.17,0-.02-.57-.04-1.25-.04H0l.04.36c.33,3.22,1.82,6.26,4.18,8.56,5.55,5.38,14.41,5.25,19.82-.29.71-.74,1.42-1.64,1.92-2.46.43-.72.76-1.39.71-1.44-.02-.02-.32-.14-.67-.27-.34-.12-.81-.29-1.03-.37-.22-.08-.45-.17-.5-.19-.07-.02-.16.08-.33.42-1.05,2.04-3.01,3.9-5.22,4.96-1.89.9-3.81,1.23-6.09,1.05-2.23-.17-4.71-1.27-6.52-2.87-.51-.45-1.25-1.25-1.54-1.65-.09-.14-.14-.1,1.3-.94l.54-.32.77.77c1.37,1.38,2.85,2.19,4.73,2.61.56.12.82.14,1.85.14.66,0,1.21-.02,1.23-.04.02-.02-.07-.45-.21-.97-.14-.51-.28-1.04-.32-1.18l-.07-.26-.88-.04c-1.66-.07-2.98-.59-4.21-1.68-.21-.18-.44-.41-.51-.49l-.12-.16,1.38-.8,1.39-.79,1.45,1.53,1.67-.34,1.67-.34,2.25-2.24-.2-.74c-.12-.47-.22-.73-.27-.73s-.56.12-1.13.28l-1.05.29-.44.42c-.47.46-.41.44-1.44.54l-.37.04-.45-.44c-.25-.24-.46-.45-.46-.46,0-.02-.07-.28-.15-.59l-.15-.57.41-.54c.22-.31.42-.55.43-.57,0-.01.27-.09.6-.17l.58-.15.79-.79c.44-.44.8-.82.8-.86s-.24-.3-.52-.59l-.52-.52-1.52.41-1.52.41-.31.32c-.17.18-.52.57-.78.86-.26.29-.58.65-.72.81-.53.6-.51.42-.18,1.55.16.55.28,1.02.27,1.03-.03.02-1.32.78-2.12,1.23-.3.17-.57.31-.61.31-.03,0-.12-.26-.21-.58-.13-.49-.15-.72-.15-1.63,0-.97.02-1.12.18-1.68.34-1.2.92-2.2,1.75-3.03,1.15-1.15,2.66-1.85,4.19-1.96.65-.05.6,0,.71-.68.04-.24.09-.55.12-.69.03-.14.07-.36.09-.5.02-.14.06-.34.07-.45l.04-.2h-.64c-.36.01-.75.03-.87.04Z"/>
    </g>
  </g>
</svg>
