<?xml version="1.0" encoding="UTF-8"?>
<svg id="Layer_1" data-name="Layer 1" xmlns="http://www.w3.org/2000/svg" viewBox="0 0 100 108.14">
	<path d="M29,7.57h14v14h14V7.57h14v7h7v7h8v29h7v7h-7v7h7v7h-7v15h-8v7h-14v-15h-7v8h-14v-8h-7v15h-14v-7h-8v-15h-7v-7h7v-7h-7v-7h7v-29h8v-7h7v-7Z"
		  style="fill: #66534d; stroke-width: 0px;"/>
	<path d="M29,21.57h7v15h28v-15h7v15h7v42h-21v8h-14v-8h-21v-42h7v-15Z" style="fill: #d7742f; stroke-width: 0px;"/>
	<path d="M78,43.57h8v7h7v7h-7v7h7v7h-7v15h-8v7h-14v-15h14v-35Z" style="fill: #bf6134; stroke-width: 0px;"/>
	<path d="M14,43.57h8v35h14v15h-14v-7h-8v-15h-7v-7h7v-7h-7v-7h7v-7Z" style="fill: #bf6134; stroke-width: 0px;"/>
	<path d="M29,7.57h14v22h-7v-8h-7v15h-7v7h-8v-22h8v-7h7v-7Z" style="fill: #a44e37; stroke-width: 0px;"/>
	<path d="M78,43.57h8v7h7v7h-7v7h7v7h-15v-28Z" style="fill: #cf6d30; stroke-width: 0px;"/>
	<path d="M14,43.57h8v28H7v-7h7v-7h-7v-7h7v-7Z" style="fill: #cf6d30; stroke-width: 0px;"/>
	<path d="M36,78.57h7v8h14v-8h7v15h-28v-15Z" style="fill: #f9f4f4; stroke-width: 0px;"/>
	<path d="M43,21.57h14v8h7v7h-28v-7h7v-8Z" style="fill: #bf6134; stroke-width: 0px;"/>
	<path d="M71,21.57h15v22h-8v-7h-7v-15Z" style="fill: #a44e37; stroke-width: 0px;"/>
	<path d="M43,36.57h14v14h-7v7h-7v-21Z" style="fill: #e68c37; stroke-width: 0px;"/>
	<path d="M29,7.57h14v22h-7v-15h-7v-7Z" style="fill: #66534d; stroke-width: 0px;"/>
	<path d="M36,93.57h28v7h-28v-7Z" style="fill: #a44e37; stroke-width: 0px;"/>
	<path d="M64,50.57h14v21h-7v-14h-7v-7Z" style="fill: #f9f4f4; stroke-width: 0px;"/>
	<path d="M22,50.57h14v7h-7v14h-7v-21Z" style="fill: #f9f4f4; stroke-width: 0px;"/>
	<path d="M22,14.57h14v7h-7v8h-7v-15Z" style="fill: #8d7168; stroke-width: 0px;"/>
	<path d="M78,71.57h8v15h-8v-15Z" style="fill: #a44e37; stroke-width: 0px;"/>
	<path d="M14,71.57h8v15h-8v-15Z" style="fill: #a44e37; stroke-width: 0px;"/>
	<path d="M43,78.57h14v8h-14v-8Z" style="fill: #13151a; stroke-width: 0px;"/>
	<path d="M43,21.57h14v8h-14v-8Z" style="fill: #a44e37; stroke-width: 0px;"/>
	<path d="M57,78.57h7v15h-7v-15Z" style="fill: #f9f4f4; stroke-width: 0px;"/>
	<path d="M64,21.57h7v15h-7v-15Z" style="fill: #e7d9d3; stroke-width: 0px;"/>
	<path d="M29,21.57h7v15h-7v-15Z" style="fill: #e7d9d3; stroke-width: 0px;"/>
	<path d="M64,86.57h14v7h-14v-7Z" style="fill: #a44e37; stroke-width: 0px;"/>
	<path d="M43,86.57h14v7h-14v-7Z" style="fill: #e7d9d3; stroke-width: 0px;"/>
	<path d="M22,86.57h14v7h-14v-7Z" style="fill: #a44e37; stroke-width: 0px;"/>
	<path d="M64,57.57h7v14h-7v-14Z" style="fill: #13151a; stroke-width: 0px;"/>
	<path d="M43,64.57h14v7h-14v-7Z" style="fill: #bf6134; stroke-width: 0px;"/>
	<path d="M29,57.57h7v14h-7v-14Z" style="fill: #13151a; stroke-width: 0px;"/>
	<path d="M64,36.57h14v7h-14v-7Z" style="fill: #bf6134; stroke-width: 0px;"/>
	<path d="M22,36.57h14v7h-14v-7Z" style="fill: #bf6134; stroke-width: 0px;"/>
	<path d="M78,21.57h8v8h-8v-8Z" style="fill: #66534d; stroke-width: 0px;"/>
	<path d="M14,21.57h8v8h-8v-8Z" style="fill: #66534d; stroke-width: 0px;"/>
	<path d="M78,43.57h8v7h-8v-7Z" style="fill: #bf6134; stroke-width: 0px;"/>
	<path d="M14,43.57h8v7h-8v-7Z" style="fill: #bf6134; stroke-width: 0px;"/>
	<path d="M71,21.57h7v8h-7v-8Z" style="fill: #8d7168; stroke-width: 0px;"/>
	<path d="M22,21.57h7v8h-7v-8Z" style="fill: #8d7168; stroke-width: 0px;"/>
	<path d="M86,64.57h7v7h-7v-7Z" style="fill: #a44e37; stroke-width: 0px;"/>
	<path d="M71,64.57h7v7h-7v-7Z" style="fill: #e7d9d3; stroke-width: 0px;"/>
	<path d="M22,64.57h7v7h-7v-7Z" style="fill: #e7d9d3; stroke-width: 0px;"/>
	<path d="M7,64.57h7v7h-7v-7Z" style="fill: #a44e37; stroke-width: 0px;"/>
	<path d="M64,57.57h7v7h-7v-7Z" style="fill: #262a33; stroke-width: 0px;"/>
	<path d="M29,57.57h7v7h-7v-7Z" style="fill: #262a33; stroke-width: 0px;"/>
	<path d="M86,50.57h7v7h-7v-7Z" style="fill: #bf6134; stroke-width: 0px;"/>
	<path d="M64,50.57h7v7h-7v-7Z" style="fill: #e7d9d3; stroke-width: 0px;"/>
	<path d="M29,50.57h7v7h-7v-7Z" style="fill: #e7d9d3; stroke-width: 0px;"/>
	<path d="M7,50.57h7v7h-7v-7Z" style="fill: #bf6134; stroke-width: 0px;"/>
	<path d="M71,29.57h7v7h-7v-7Z" style="fill: #66534d; stroke-width: 0px;"/>
	<path d="M64,29.57h7v7h-7v-7Z" style="fill: #c7a3b9; stroke-width: 0px;"/>
	<path d="M57,29.57h7v7h-7v-7Z" style="fill: #a44e37; stroke-width: 0px;"/>
	<path d="M36,29.57h7v7h-7v-7Z" style="fill: #a44e37; stroke-width: 0px;"/>
	<path d="M29,29.57h7v7h-7v-7Z" style="fill: #c7a3b9; stroke-width: 0px;"/>
	<path d="M22,29.57h7v7h-7v-7Z" style="fill: #66534d; stroke-width: 0px;"/>
	<path d="M71,14.57h7v7h-7v-7Z" style="fill: #66534d; stroke-width: 0px;"/>
	<path d="M64,14.57h7v7h-7v-7Z" style="fill: #8d7168; stroke-width: 0px;"/>
	<path d="M22,14.57h7v7h-7v-7Z" style="fill: #66534d; stroke-width: 0px;"/>
</svg>
