<?xml version="1.0" encoding="UTF-8"?>
<svg xmlns="http://www.w3.org/2000/svg" viewBox="0 0 3219.28 1868.67">
  <defs>
    <style>
      .cls-1 {
        fill: #fff;
      }

      .cls-1, .cls-2 {
        stroke-width: 0px;
      }

      .cls-2 {
        fill: #00c5fe;
      }
    </style>
  </defs>
  <g>
    <path class="cls-1" d="m1128.47,949.12c1.12,0,1.13,0,1.13-6.28-.08-97-1.51-936.95-1.51-936.95,0-2.4,1.15-3.68,3.64-3.66l175-.13c6.62,0,10.93,1.66,14.7,7.56l266.74,416.46c4.05,6.03,6.17,13.16,6.07,20.42v922c.11,6.93-1.83,13.75-5.58,19.58l-299,475.22c-2.53,3.75-5.46,5.3-9.92,5.2l-141,.13c-7.91.09-12.37-2.31-16.58-9.12-155.39-251.25-656.54-1093.56-656.54-1093.56l-1.2,1097.13q0,5.54-5.86,5.37H7.56q-7.56,0-7.56-7.68V15.83Q0,2.2,13.72,2.2c172,0,344-.07,516-.2,8.31,0,12.9,2.38,17.4,9.48l581.35,937.64Z"/>
    <path class="cls-1" d="m1362.18.2h11.93c214.98,0,429.98-.07,645-.2,8.15,0,12.19,2.75,16.12,9.57,92.4,160.43,184.96,320.77,277.68,481,1.93,3.35,3.24,7.19,6.5,9.78,3.37-2.63,4.79-6.49,6.82-9.87,96.25-160.5,192.43-321.05,288.52-481.65,4-6.61,8.05-8.83,15.68-8.82,164,.24,328,.31,492,.22,3.24,0,6.57-.63,10.26.74.11,3.93-2.75,6.57-4.56,9.48-73.33,117.55-146.71,235.07-220.14,352.56-102.86,164.67-205.72,329.33-308.59,494-.81,1.46-1.71,2.86-2.7,4.2-3.12,3.84-3.3,7.42-.24,11.59,3.53,4.82,6.48,10.08,9.66,15.16l607.29,967.19c1.92,3.06,3.76,6.18,5.87,9.67-3.49,2.66-7.23,1.52-10.61,1.52-58.67.09-117.33.11-176,.06-155.66,0-311.33,0-467,0-14.08,0-10.23,1.92-17-9.55-110.91-188.59-221.76-377.21-332.56-565.87-1.8-3.05-3.08-6.54-6.53-9.52-2.69,4.34-5.15,8.15-7.46,12-111.33,188-222.57,376-333.7,564-4.16,7-8.64,9.09-16.43,9.08-167.33-.21-334.67-.27-502-.2-3.55,0-7.21.78-11.42-1,2.06-3.52,3.93-6.92,6-10.22,196.21-315.28,392.42-630.56,588.65-945.83.47-.88.99-1.73,1.58-2.54,3.73-4.36,4.54-8.69.21-13.21-.83-1.04-1.57-2.16-2.2-3.33L1369.14,11.21c-1.9-2.91-3.8-5.98-6.96-11.01Z"/>
    <path class="cls-2" d="m1635.63,506.12l244.28,389c4.24,6.75,4.71,11.46.23,18.57-80.2,127.37-244.44,389.26-244.44,389.26q-1.62,2.35-1.6-1.11V506.42q.01-2.53,1.53-.3Z"/>
  </g>
</svg>
