<?xml version="1.0" encoding="UTF-8"?>
<svg xmlns="http://www.w3.org/2000/svg" viewBox="0 0 4096 4096">
	<defs>
		<style>.cls-1{fill:#fff;}.cls-2{fill:#00c5fe;}</style>
	</defs>
	<path class="cls-1"
		  d="M1582.36,2065c1.12,0,1.13,0,1.13-6.28-.08-97-1.51-936.95-1.51-936.95,0-2.4,1.15-3.68,3.64-3.66l175-.13c6.62,0,10.93,1.66,14.7,7.56L2042.06,1542a35.81,35.81,0,0,1,6.07,20.42l0,922a35.13,35.13,0,0,1-5.58,19.58l-299,475.22c-2.53,3.75-5.46,5.3-9.92,5.2l-141,.13c-7.91.09-12.37-2.31-16.58-9.12-155.39-251.25-656.54-1093.56-656.54-1093.56L918.31,2979c0,5.54,0,5.54-5.86,5.37l-451,0c-7.56,0-7.56,0-7.56-7.68V1131.71c0-13.63,0-13.63,13.72-13.63q258,0,516-.2c8.31,0,12.9,2.38,17.4,9.48Z"/>
	<path class="cls-1"
		  d="M1816.07,1116.08H1828q322.47,0,645-.2c8.15,0,12.19,2.75,16.12,9.57q138.6,240.65,277.68,481c1.93,3.35,3.24,7.19,6.5,9.78,3.37-2.63,4.79-6.49,6.82-9.87q144.38-240.75,288.52-481.65c4-6.61,8.05-8.83,15.68-8.82q246,.36,492,.22c3.24,0,6.57-.63,10.26.74.11,3.93-2.75,6.57-4.56,9.48q-110,176.33-220.14,352.56-154.29,247-308.59,494a39.55,39.55,0,0,1-2.7,4.2c-3.12,3.84-3.3,7.42-.24,11.59,3.53,4.82,6.48,10.08,9.66,15.16l607.29,967.19c1.92,3.06,3.76,6.18,5.87,9.67-3.49,2.66-7.23,1.52-10.61,1.52q-88,.14-176,.06-233.49,0-467,0c-14.08,0-10.23,1.92-17-9.55Q2836.2,2689.85,2670,2406.86c-1.8-3.05-3.08-6.54-6.53-9.52-2.69,4.34-5.15,8.15-7.46,12q-167,282-333.7,564c-4.16,7-8.64,9.09-16.43,9.08q-251-.31-502-.2c-3.55,0-7.21.78-11.42-1,2.06-3.52,3.93-6.92,6-10.22q294.31-472.92,588.65-945.83a21.19,21.19,0,0,1,1.58-2.54c3.73-4.36,4.54-8.69.21-13.21a21.81,21.81,0,0,1-2.2-3.33l-563.67-879C1821.13,1124.18,1819.23,1121.11,1816.07,1116.08Z"/>
	<path class="cls-2"
		  d="M2089.52,1622l244.28,389c4.24,6.75,4.71,11.46.23,18.57-80.2,127.37-244.44,389.26-244.44,389.26-1.62,2.35-1.62,2.35-1.6-1.11l0-795.42C2088,1619.77,2088,1619.77,2089.52,1622Z"/>
</svg>
