<?xml version="1.0" encoding="UTF-8"?>
<svg xmlns="http://www.w3.org/2000/svg" viewBox="0 0 22.29 26">
  <defs>
    <style>
      .cls-1 {
        fill: #00a4ee;
      }

      .cls-1, .cls-2, .cls-3 {
        stroke-width: 0px;
      }

      .cls-2 {
        fill: #002788;
      }

      .cls-3 {
        fill: #0045d9;
      }
    </style>
  </defs>
  <g>
    <path class="cls-3" d="m19.82,7.96l-14.07,15.26H.58c-.36,0-.65-.36-.57-.71L3.45.85c.07-.5.5-.85,1-.85h8.74c6.02.21,7.67,3.28,6.59,7.98h.02Z"/>
    <path class="cls-1" d="m20.05,6.55c2.15,1.14,2.65,3.28,1.94,6.13-.93,4.2-3.73,5.98-7.81,6.06l-1.15.07c-.43,0-.72.28-.79.71l-.93,5.63c-.07.5-.5.85-1,.85h-4.3c-.36,0-.65-.36-.57-.71l1.58-10.19c.07-.36,13.05-8.55,13.05-8.55Z"/>
    <path class="cls-2" d="m6.91,15.6l1.43-9.05c.05-.21.16-.41.33-.55.17-.14.38-.22.6-.23h6.88c1.65,0,2.87.28,3.87.78-.36,3.13-1.86,8.19-9.17,8.33h-3.15c-.36,0-.72.28-.79.71Z"/>
  </g>
</svg>
