<?xml version="1.0" encoding="UTF-8"?>
<svg xmlns="http://www.w3.org/2000/svg" viewBox="0 0 94.95 80.75" fill="currentColor">
  <g>
    <path d="m93.67,60.47l-14.2-5.3-27.2,10.1c-1.5.5-3.2.9-4.8.9-1.7,0-3.3-.3-4.8-.9l-27.2-10.1-14.2,5.3c-1.7.6-1.7,3,0,3.7l43.9,16.2c1.5.5,3.1.5,4.6,0l43.9-16.2c1.7-.7,1.7-3.1,0-3.7Z"/>
    <path d="m93.67,38.58l-14.2-5.3-27.2,10c-1.5.6-3.2.9-4.8.9-1.7,0-3.3-.3-4.8-.9l-27.2-10-14.2,5.3c-1.7.6-1.7,3,0,3.7l43.9,16.1c1.5.6,3.1.6,4.6,0l43.9-16.2c1.7-.6,1.7-3,0-3.6Z"/>
    <path d="m1.28,20.27l43.9,16.2c1.5.5,3.1.5,4.6,0l43.9-16.2c1.7-.6,1.7-3.1,0-3.7L49.77.38c-1.5-.5-3.1-.5-4.6,0L1.28,16.58c-1.7.6-1.7,3.1,0,3.7Z"/>
  </g>
</svg>
