<?xml version="1.0" encoding="UTF-8"?>
<svg xmlns="http://www.w3.org/2000/svg" viewBox="0 0 14 16" fill="currentColor">
  <g>
    <path class="cls-1" d="m13.57,2.5c-2.25-.32-4.41-1.15-6.29-2.42-.17-.11-.39-.11-.55,0C4.84,1.36,2.68,2.18.43,2.5c-.25.04-.43.25-.43.5v4.5c0,3.89,2.31,6.73,6.82,8.47.12.04.24.04.36,0,4.51-1.74,6.82-4.58,6.82-8.47V3c0-.25-.18-.46-.43-.49h0Zm-6.55,10.74c-.49,0-.9-.41-.9-.9s.41-.9.9-.9.9.41.9.9-.41.9-.9.9Zm1.54-4.79l-.13.14c-.51.53-.64.79-.64,1.33,0,.41-.34.75-.75.75s-.75-.34-.75-.75c0-1.08.34-1.65,1.22-2.52l.13-.14c.51-.53.64-.79.64-1.33,0-.69-.56-1.25-1.25-1.25s-1.25.56-1.25,1.25v.1c-.06.37-.37.65-.75.65-.41,0-.75-.33-.75-.75,0-1.52,1.23-2.74,2.74-2.74s2.74,1.23,2.74,2.74c0,1.08-.34,1.65-1.22,2.52h.02Z"/>
  </g>
</svg>
